<svg xmlns="http://www.w3.org/2000/svg" viewBox="0 0 900 900"><g fill="none" stroke="#f79892" stroke-width="2"><path d="M180.47 512.92c-20.91 3.98-43.21 4.47-63.95.57-16.27-3.06-26.21-14.19-26.26-30.99q-.07-27.58.02-115.65 0-.51-.3-.93c-9.45-13.31-36.41-17.19-51.11-17.41a.76.76 0 0 0-.77.76q-.54 63.05-.29 126.04.07 16.68.41 19.99c3.48 33.23 30.39 51.39 61.35 56.63q35.04 5.92 71.97 2.83c20.88-1.75 43.55-4.87 61.72-16.24 19.96-12.49 26.87-30.37 26.94-53.27q.23-68.01-.19-135.52 0-1.11-1.12-1.08c-17.92.45-37.04 4.4-50.47 16.39a2.02 2.01 69.4 0 0-.68 1.51q.03 55.94-.01 111.88-.01 9.04-1.44 13.36c-3.8 11.47-14.11 18.9-25.82 21.13M426.14 486.69q-1.73-1.83-3.14-3.96-37.19-56.19-74.45-112.33c-14.99-22.58-53.73-21.87-78.35-21.7a.43.43 0 0 0-.35.67l137.36 205.69a2.17 2.14 71.9 0 0 1.86.96q16.01-.46 31.94-.22c.99.01 2.89.75 3.75-.52q69.35-103.07 138.47-206.38a.14.14 0 0 0-.11-.22c-22.05-.16-42.38-.45-63.55 8.63-7.6 3.26-12.35 7.33-17.18 14.65q-36.56 55.4-73.19 110.73-1.25 1.88-2.27 3.89-.32.61-.79.11M810.29 430.65q.48-.27.48.29v124.23q0 .66.65.66l51.08-.11q.72-.01.72-.6l-.07-205.77q0-.64-.63-.66c-18.18-.82-39.18 3.23-53.45 15.5q-2.21 1.9-13.68 14.56-32.23 35.59-64.42 71.21-1.1 1.21-3.02 2.92-.38.34-.72-.04-37.91-42.36-75.96-84.61c-13.39-14.88-37.45-20.69-56.9-19.34q-1.62.11-1.62 1.73v204.63a.5.5 0 0 0 .5.5h49.53q1.54 0 1.54-1.53l.08-123.41a1.01 1.01 0 0 1 1.81-.61q6.31 8.17 12.94 15.64 34.19 38.51 68.17 77.25.35.4.72.01 2.17-2.24 4.23-4.58 37.05-42.08 73.81-84.41 1.91-2.2 4.21-3.46" vector-effect="non-scaling-stroke"/></g><path fill="#ef3125" d="M0 0h900v900H0V0Zm180.47 512.92c-20.91 3.98-43.21 4.47-63.95.57-16.27-3.06-26.21-14.19-26.26-30.99q-.07-27.58.02-115.65 0-.51-.3-.93c-9.45-13.31-36.41-17.19-51.11-17.41a.76.76 0 0 0-.77.76q-.54 63.05-.29 126.04.07 16.68.41 19.99c3.48 33.23 30.39 51.39 61.35 56.63q35.04 5.92 71.97 2.83c20.88-1.75 43.55-4.87 61.72-16.24 19.96-12.49 26.87-30.37 26.94-53.27q.23-68.01-.19-135.52 0-1.11-1.12-1.08c-17.92.45-37.04 4.4-50.47 16.39a2.02 2.01 69.4 0 0-.68 1.51q.03 55.94-.01 111.88-.01 9.04-1.44 13.36c-3.8 11.47-14.11 18.9-25.82 21.13Zm245.67-26.23q-1.73-1.83-3.14-3.96-37.19-56.19-74.45-112.33c-14.99-22.58-53.73-21.87-78.35-21.7a.43.43 0 0 0-.35.67l137.36 205.69a2.17 2.14 71.9 0 0 1.86.96q16.01-.46 31.94-.22c.99.01 2.89.75 3.75-.52q69.35-103.07 138.47-206.38a.14.14 0 0 0-.11-.22c-22.05-.16-42.38-.45-63.55 8.63-7.6 3.26-12.35 7.33-17.18 14.65q-36.56 55.4-73.19 110.73-1.25 1.88-2.27 3.89-.32.61-.79.11Zm384.15-56.04q.48-.27.48.29v124.23q0 .66.65.66l51.08-.11q.72-.01.72-.6l-.07-205.77q0-.64-.63-.66c-18.18-.82-39.18 3.23-53.45 15.5q-2.21 1.9-13.68 14.56-32.23 35.59-64.42 71.21-1.1 1.21-3.02 2.92-.38.34-.72-.04-37.91-42.36-75.96-84.61c-13.39-14.88-37.45-20.69-56.9-19.34q-1.62.11-1.62 1.73v204.63a.5.5 0 0 0 .5.5h49.53q1.54 0 1.54-1.53l.08-123.41a1.01 1.01 0 0 1 1.81-.61q6.31 8.17 12.94 15.64 34.19 38.51 68.17 77.25.35.4.72.01 2.17-2.24 4.23-4.58 37.05-42.08 73.81-84.41 1.91-2.2 4.21-3.46Z"/><path fill="#fff" d="M116.52 513.49c20.74 3.9 43.04 3.41 63.95-.57 11.71-2.23 22.02-9.66 25.82-21.13q1.43-4.32 1.44-13.36.04-55.94.01-111.88a2.02 2.01 69.4 0 1 .68-1.51c13.43-11.99 32.55-15.94 50.47-16.39q1.12-.03 1.12 1.08.42 67.51.19 135.52c-.07 22.9-6.98 40.78-26.94 53.27-18.17 11.37-40.84 14.49-61.72 16.24q-36.93 3.09-71.97-2.83c-30.96-5.24-57.87-23.4-61.35-56.63q-.34-3.31-.41-19.99-.25-62.99.29-126.04a.76.76 0 0 1 .77-.76c14.7.22 41.66 4.1 51.11 17.41q.3.42.3.93-.09 88.07-.02 115.65c.05 16.8 9.99 27.93 26.26 30.99ZM426.93 486.58q1.02-2.01 2.27-3.89 36.63-55.33 73.19-110.73c4.83-7.32 9.58-11.39 17.18-14.65 21.17-9.08 41.5-8.79 63.55-8.63a.14.14 0 0 1 .11.22q-69.12 103.31-138.47 206.38c-.86 1.27-2.76.53-3.75.52q-15.93-.24-31.94.22a2.17 2.14 71.9 0 1-1.86-.96L269.85 349.37a.43.43 0 0 1 .35-.67c24.62-.17 63.36-.88 78.35 21.7q37.26 56.14 74.45 112.33 1.41 2.13 3.14 3.96.47.5.79-.11ZM810.29 430.65q-2.3 1.26-4.21 3.46-36.76 42.33-73.81 84.41-2.06 2.34-4.23 4.58-.37.39-.72-.01-33.98-38.74-68.17-77.25-6.63-7.47-12.94-15.64a1.01 1.01 0 0 0-1.81.61l-.08 123.41q0 1.53-1.54 1.53h-49.53a.5.5 0 0 1-.5-.5V350.62q0-1.62 1.62-1.73c19.45-1.35 43.51 4.46 56.9 19.34q38.05 42.25 75.96 84.61.34.38.72.04 1.92-1.71 3.02-2.92 32.19-35.62 64.42-71.21 11.47-12.66 13.68-14.56c14.27-12.27 35.27-16.32 53.45-15.5q.63.02.63.66l.07 205.77q0 .59-.72.6l-51.08.11q-.65 0-.65-.66V430.94q0-.56-.48-.29Z"/></svg>